<svg width="32" height="32" viewBox="0 0 32 32" fill="none" xmlns="http://www.w3.org/2000/svg">
<rect width="32" height="32" rx="5" fill="#9B9BA6"/>
<g clip-path="url(#clip0_77_2166)">
<path d="M23.2521 19.807C22.9648 20.4708 22.6247 21.0819 22.2306 21.6436C21.6935 22.4095 21.2537 22.9396 20.9147 23.2339C20.3893 23.7171 19.8264 23.9646 19.2236 23.9787C18.7908 23.9787 18.2689 23.8555 17.6614 23.6057C17.0519 23.3571 16.4917 23.2339 15.9796 23.2339C15.4424 23.2339 14.8664 23.3571 14.2502 23.6057C13.633 23.8555 13.1359 23.9857 12.7558 23.9986C12.1777 24.0232 11.6015 23.7687 11.0264 23.2339C10.6593 22.9138 10.2001 22.3649 9.65009 21.5873C9.05994 20.757 8.57475 19.7941 8.19464 18.6964C7.78756 17.5107 7.5835 16.3625 7.5835 15.2509C7.5835 13.9776 7.85864 12.8794 8.40974 11.9591C8.84285 11.2199 9.41905 10.6367 10.1402 10.2087C10.8614 9.7806 11.6406 9.56246 12.4797 9.5485C12.9389 9.5485 13.541 9.69053 14.2892 9.96965C15.0354 10.2497 15.5145 10.3917 15.7245 10.3917C15.8815 10.3917 16.4138 10.2257 17.316 9.89459C18.1692 9.58755 18.8893 9.46042 19.4792 9.5105C21.0778 9.63951 22.2787 10.2697 23.0774 11.4049C21.6477 12.2712 20.9405 13.4844 20.9546 15.0409C20.9675 16.2532 21.4073 17.262 22.2717 18.0631C22.6634 18.4348 23.1008 18.7222 23.5876 18.9262C23.482 19.2323 23.3706 19.5255 23.2521 19.807ZM19.586 5.38035C19.586 6.33057 19.2388 7.21778 18.5468 8.03898C17.7118 9.01522 16.7018 9.57934 15.6065 9.49033C15.5926 9.37633 15.5845 9.25635 15.5845 9.13028C15.5845 8.21807 15.9816 7.24183 16.6868 6.44362C17.0389 6.03947 17.4866 5.70342 18.0296 5.43536C18.5715 5.17129 19.084 5.02525 19.566 5.00024C19.5801 5.12727 19.586 5.25431 19.586 5.38034V5.38035Z" fill="white"/>
</g>
<defs>
<clipPath id="clip0_77_2166">
<rect width="19" height="19" fill="white" transform="translate(6 5)"/>
</clipPath>
</defs>
</svg>
