<svg width="26" height="28" viewBox="0 0 26 28" fill="none" xmlns="http://www.w3.org/2000/svg">
<path d="M13.2182 26.067V8.61247M11.1869 7.56536C11.403 7.61385 11.6307 7.55442 11.7863 7.39884C11.9419 7.24327 12.0012 7.01548 11.9528 6.79948C11.7589 6.00725 11.0445 3.35444 10.3109 2.62086C9.39693 1.70691 7.90943 1.70311 7 2.61253C6.09063 3.5219 6.09431 5.0094 7.00833 5.92341C7.75391 6.669 10.3947 7.37144 11.1869 7.56536ZM13.4052 6.79941C13.3567 7.0155 13.4161 7.24321 13.5717 7.39878C13.7273 7.55436 13.955 7.6137 14.171 7.5653C14.9633 7.37135 17.6161 6.65694 18.3497 5.92335C19.2636 5.0094 19.2674 3.5219 18.358 2.61247C17.4486 1.70311 15.9611 1.70678 15.0471 2.6208C14.3015 3.36639 13.5991 6.00721 13.4052 6.79941ZM1.87273 14.7216H24.1273C24.6093 14.7216 25 14.3308 25 13.8488V9.4852C25 9.00321 24.6093 8.61247 24.1273 8.61247H1.87273C1.39073 8.61247 1 9.00321 1 9.4852V13.8488C1 14.3308 1.39073 14.7216 1.87273 14.7216ZM22.8182 14.7216V25.1943C22.8182 25.6763 22.4274 26.067 21.9455 26.067H4.05455C3.57255 26.067 3.18182 25.6763 3.18182 25.1943V14.7216H22.8182Z" stroke="black" stroke-width="2" stroke-linecap="round" stroke-linejoin="round"/>
</svg>
