<svg width="45" height="45" viewBox="0 0 45 45" fill="none" xmlns="http://www.w3.org/2000/svg">
<path fill-rule="evenodd" clip-rule="evenodd" d="M21.9998 8C13.7287 8 7 14.7293 7 23C7 31.2707 13.7292 38 21.9998 38C30.2708 38 37 31.2707 37 23C37 14.7293 30.2708 8 21.9998 8ZM21.9998 36.3921C14.6153 36.3921 8.6074 30.3845 8.6074 23C8.6074 15.6155 14.6153 9.60743 21.9998 9.60743C29.3842 9.60743 35.3917 15.6155 35.3917 23C35.3917 30.3845 29.3842 36.3921 21.9998 36.3921Z" fill="#14110D"/>
<path fill-rule="evenodd" clip-rule="evenodd" d="M25.675 20.0342L22.552 23.2612V11.7832C22.5473 11.5738 22.4634 11.3746 22.3184 11.2283C22.1734 11.0819 21.9787 11 21.776 11C21.5733 11 21.3786 11.0819 21.2336 11.2283C21.0886 11.3746 21.0048 11.5738 21 11.7832V25.1966C21 25.2495 21.0052 25.3024 21.0155 25.3544C21.0198 25.3771 21.028 25.398 21.0344 25.4202C21.0422 25.4482 21.0486 25.4767 21.0598 25.5043C21.0706 25.5309 21.0852 25.5549 21.0985 25.5803C21.1093 25.6012 21.1183 25.6225 21.1312 25.6425C21.188 25.7306 21.2616 25.8061 21.3468 25.8653C21.3627 25.8764 21.3799 25.8835 21.3963 25.8928C21.4238 25.9088 21.4505 25.9257 21.4802 25.9386C21.5034 25.9484 21.528 25.9542 21.5516 25.9618C21.5761 25.9693 21.5994 25.9791 21.6248 25.984C21.7247 26.0053 21.8278 26.0053 21.9277 25.984C21.9531 25.9787 21.9767 25.9693 22.0013 25.9613C22.0249 25.9538 22.049 25.9484 22.0723 25.9386C22.1024 25.9257 22.1299 25.9084 22.1579 25.892C22.1738 25.8826 22.1902 25.8759 22.2057 25.8653C22.249 25.8358 22.2893 25.8017 22.3257 25.7635L26.7727 21.1684C26.8447 21.094 26.9019 21.0055 26.9409 20.9082C26.9799 20.8109 27 20.7067 27 20.6013C27 20.496 26.9799 20.3917 26.9409 20.2944C26.9019 20.1971 26.8447 20.1087 26.7727 20.0342C26.7006 19.9598 26.615 19.9007 26.5209 19.8604C26.4267 19.8201 26.3258 19.7993 26.2238 19.7993C26.1219 19.7993 26.021 19.8201 25.9268 19.8604C25.8327 19.9007 25.7471 19.9598 25.675 20.0342Z" fill="#14110D"/>
<path fill-rule="evenodd" clip-rule="evenodd" d="M22.4998 4C12.2989 4 4 12.2989 4 22.5002C4 32.7015 12.2989 41 22.4998 41C32.7006 41 41 32.7011 41 22.5002C41 12.2994 32.7006 4 22.4998 4ZM22.4998 39.3963C13.183 39.3963 5.6028 31.8166 5.6028 22.4998C5.6028 13.183 13.1826 5.6028 22.4998 5.6028C31.817 5.6028 39.3963 13.183 39.3963 22.4998C39.3963 31.8166 31.8166 39.3963 22.4998 39.3963Z" fill="#14110D"/>
</svg>
