<svg width="45" height="45" viewBox="0 0 45 45" fill="none" xmlns="http://www.w3.org/2000/svg">
<path fill-rule="evenodd" clip-rule="evenodd" d="M39.3173 12.2557C39.4983 12.2557 39.672 12.1854 39.8 12.0603C39.9281 11.9352 40 11.7655 40 11.5886V5.66709C40 5.49016 39.9281 5.32049 39.8 5.19538C39.672 5.07028 39.4983 5 39.3173 5H5.78379C5.60271 5 5.42905 5.07028 5.30102 5.19538C5.17298 5.32049 5.10105 5.49016 5.10105 5.66709V11.5886C5.10105 11.7655 5.17298 11.9352 5.30102 12.0603C5.42905 12.1854 5.60271 12.2557 5.78379 12.2557H8.23209V16.5504H5.83476C5.65369 16.5504 5.48003 16.6206 5.35199 16.7457C5.22395 16.8708 5.15202 17.0405 5.15202 17.2174V19.7835C5.15202 19.9604 5.22395 20.1301 5.35199 20.2552C5.48003 20.3803 5.65369 20.4506 5.83476 20.4506H8.23209V31.7448H5.68274C5.50167 31.7448 5.32801 31.8151 5.19997 31.9402C5.07193 32.0653 5 32.2349 5 32.4119V38.3329C5 38.5098 5.07193 38.6795 5.19997 38.8046C5.32801 38.9297 5.50167 39 5.68274 39H39.2162C39.3973 39 39.5709 38.9297 39.699 38.8046C39.827 38.6795 39.899 38.5098 39.899 38.3329V32.4119C39.899 32.2349 39.827 32.0653 39.699 31.9402C39.5709 31.8151 39.3973 31.7448 39.2162 31.7448H37.071V12.2557H39.3173ZM6.46653 6.33417H38.6345V10.9215H6.46653V6.33417ZM18.587 12.2557H26.5141V19.4126H18.587V12.2557ZM9.59757 12.2557H17.2215V17.9321H14.3626V17.2174C14.3626 17.0405 14.2907 16.8708 14.1627 16.7457C14.0346 16.6206 13.861 16.5504 13.6799 16.5504H9.59757V12.2557ZM6.5175 17.8845H12.9972V19.1164H6.5175V17.8845ZM38.5335 37.6663H6.36548V33.079H38.5335V37.6663ZM19.303 28.4205V25.8896H26.0056V28.4205C26.0056 30.0317 24.5023 31.3423 22.6543 31.3423C20.8063 31.3423 19.303 30.0317 19.303 28.4205ZM35.7056 31.7448H25.5914C26.6743 30.9643 27.3711 29.7653 27.3711 28.42V25.222C27.3711 25.0451 27.2992 24.8754 27.1712 24.7503C27.0431 24.6252 26.8695 24.5549 26.6884 24.5549H18.6202C18.4391 24.5549 18.2655 24.6252 18.1374 24.7503C18.0094 24.8754 17.9375 25.0451 17.9375 25.222V28.42C17.9375 29.7649 18.6343 30.9643 19.7172 31.7448H9.59757V20.4506H13.6799C13.861 20.4506 14.0346 20.3803 14.1627 20.2552C14.2907 20.1301 14.3626 19.9604 14.3626 19.7835V19.2663H17.2215V20.0797C17.2215 20.2566 17.2934 20.4263 17.4215 20.5514C17.5495 20.6765 17.7232 20.7468 17.9042 20.7468H27.1968C27.3779 20.7468 27.5515 20.6765 27.6796 20.5514C27.8076 20.4263 27.8795 20.2566 27.8795 20.0797V12.2557H35.7051L35.7056 31.7448Z" fill="#14110D"/>
</svg>
