<svg width="45" height="45" viewBox="0 0 45 45" fill="none" xmlns="http://www.w3.org/2000/svg">
<path fill-rule="evenodd" clip-rule="evenodd" d="M9.66279 31.9435H10.8333L9.32256 37.1303C9.29775 37.2155 9.28962 37.3049 9.29864 37.3933C9.30765 37.4817 9.33363 37.5674 9.37509 37.6455C9.41655 37.7237 9.47268 37.7927 9.54028 37.8487C9.60788 37.9048 9.68562 37.9466 9.76906 37.9719C9.8525 37.9973 9.94001 38.0056 10.0266 37.9964C10.1132 37.9872 10.1971 37.9606 10.2737 37.9183C10.3502 37.876 10.4178 37.8187 10.4727 37.7496C10.5275 37.6806 10.5685 37.6013 10.5933 37.5161L12.2163 31.9431H16.809L18.432 37.5161C18.4864 37.6828 18.6022 37.8214 18.7548 37.9026C18.9075 37.9838 19.0852 38.0012 19.2502 37.9511C19.4152 37.901 19.5547 37.7874 19.6391 37.6342C19.7236 37.481 19.7464 37.3004 19.7027 37.1303L18.192 31.9435H19.3837C19.5595 31.9435 19.7281 31.8722 19.8524 31.7453C19.9767 31.6184 20.0465 31.4463 20.0465 31.2668C20.0465 31.0873 19.9767 30.9152 19.8524 30.7883C19.7281 30.6614 19.5595 30.5901 19.3837 30.5901H17.7979L16.5267 26.2253C16.5146 26.1854 16.4991 26.1467 16.4803 26.1098C17.8354 25.4028 18.7673 23.9664 18.7673 22.3084C18.7673 20.3225 17.4303 18.6532 15.6279 18.1791V15.0256C15.6279 14.8461 15.5581 14.674 15.4338 14.5471C15.3095 14.4202 15.1409 14.3489 14.9651 14.3489C14.7893 14.3489 14.6207 14.4202 14.4965 14.5471C14.3722 14.674 14.3023 14.8461 14.3023 15.0256V18.0541C12.1293 18.2043 10.4047 20.0522 10.4047 22.3084C10.4047 23.9208 11.2849 25.3261 12.58 26.0525C12.5448 26.1057 12.5174 26.1639 12.4987 26.2253L11.2274 30.5901H9.66279C9.48701 30.5901 9.31842 30.6614 9.19413 30.7883C9.06983 30.9152 9 31.0873 9 31.2668C9 31.4463 9.06983 31.6184 9.19413 31.7453C9.31842 31.8722 9.48701 31.9435 9.66279 31.9435ZM11.7303 22.3084C11.7303 20.701 13.0112 19.3927 14.586 19.3927C16.1608 19.3927 17.4417 20.7005 17.4417 22.3084C17.4417 23.9163 16.1608 25.2242 14.586 25.2242C13.0112 25.2242 11.7303 23.9163 11.7303 22.3084ZM13.7694 26.6114C13.7805 26.574 13.7862 26.5361 13.7907 26.4982C14.0527 26.5507 14.319 26.5775 14.586 26.578C14.8087 26.578 15.0257 26.555 15.2391 26.5207C15.2435 26.551 15.247 26.5812 15.2559 26.6114L16.4149 30.5901H12.6109L13.7694 26.6114ZM23.8023 37.8084H27.3372C27.513 37.8084 27.6816 37.7371 27.8059 37.6102C27.9302 37.4833 28 37.3112 28 37.1317V19.0836C28 18.9956 27.9832 18.9086 27.9505 18.8274L26.1831 14.4201C26.1332 14.2959 26.0483 14.1896 25.939 14.1148C25.8298 14.0399 25.7013 14 25.5698 14C25.4382 14 25.3097 14.0399 25.2005 14.1148C25.0913 14.1896 25.0063 14.2959 24.9565 14.4201L23.189 18.8274C23.1542 18.9134 23.1374 19.0059 23.1395 19.099V37.1317C23.1395 37.3112 23.2094 37.4833 23.3337 37.6102C23.458 37.7371 23.6265 37.8084 23.8023 37.8084ZM24.4651 36.455V35.1015H26.6744V36.455H24.4651ZM25.5698 16.4625L26.6744 19.2172V33.7481H24.4651V19.2172L25.5698 16.4625Z" fill="#14110D"/>
<path fill-rule="evenodd" clip-rule="evenodd" d="M32.3333 7H5.66667C5.48986 7 5.32029 7.07112 5.19526 7.1977C5.07024 7.32429 5 7.49598 5 7.675V42.325C5 42.504 5.07024 42.6757 5.19526 42.8023C5.32029 42.9289 5.48986 43 5.66667 43H32.3333C32.5101 43 32.6797 42.9289 32.8047 42.8023C32.9298 42.6757 33 42.504 33 42.325V7.675C33 7.49598 32.9298 7.32429 32.8047 7.1977C32.6797 7.07112 32.5101 7 32.3333 7ZM31.6667 41.65H6.33333V8.35H31.6667V41.65Z" fill="#14110D"/>
<path fill-rule="evenodd" clip-rule="evenodd" d="M37.3333 2H10.6667C10.4899 2 10.3203 2.07112 10.1953 2.1977C10.0702 2.32429 10 2.49598 10 2.675V6.275C10 6.45402 10.0702 6.62571 10.1953 6.7523C10.3203 6.87888 10.4899 6.95 10.6667 6.95C10.8435 6.95 11.013 6.87888 11.1381 6.7523C11.2631 6.62571 11.3333 6.45402 11.3333 6.275V3.35H36.6667V36.65H34.2222C34.0454 36.65 33.8758 36.7211 33.7508 36.8477C33.6258 36.9743 33.5556 37.146 33.5556 37.325C33.5556 37.504 33.6258 37.6757 33.7508 37.8023C33.8758 37.9289 34.0454 38 34.2222 38H37.3333C37.5101 38 37.6797 37.9289 37.8047 37.8023C37.9298 37.6757 38 37.504 38 37.325V2.675C38 2.49598 37.9298 2.32429 37.8047 2.1977C37.6797 2.07112 37.5101 2 37.3333 2Z" fill="#14110D"/>
</svg>
