<svg width="22" height="26" viewBox="0 0 22 26" fill="none" xmlns="http://www.w3.org/2000/svg">
<path d="M14.7505 1V5.5C14.7505 6.32843 15.422 7 16.2505 7H20.7505M6.50047 7H9.50047M6.50047 11.5H15.5005M6.50047 16H15.5005M18.5005 3.25C17.8329 2.65268 17.1401 1.94422 16.7028 1.4841C16.4118 1.17792 16.0097 1 15.5873 1H4.25012C2.59327 1 1.25013 2.34314 1.25012 3.99998L1.25 21.9999C1.24999 23.6568 2.59313 24.9999 4.24999 24.9999L17.75 25C19.4069 25 20.75 23.6569 20.7501 22.0001L20.7505 6.09729C20.7505 5.71374 20.6041 5.34504 20.3379 5.06891C19.8457 4.55831 19.0237 3.71815 18.5005 3.25Z" stroke="black" stroke-width="2" stroke-linecap="round" stroke-linejoin="round"/>
</svg>
