<svg width="163" height="40" viewBox="0 0 163 40" fill="none" xmlns="http://www.w3.org/2000/svg">
<g clip-path="url(#clip0_78_754)">
<path d="M18.6813 39.6011H13.0801L13.1061 5.65649H18.6596L18.6813 39.6011Z" fill="#14110D"/>
<path d="M55.9499 29.636C55.9648 30.7437 55.8089 31.8472 55.4877 32.9078C55.2079 33.8167 54.7967 34.6802 54.2673 35.471C53.7796 36.1919 53.1794 36.8302 52.4893 37.3618C51.837 37.8652 51.1295 38.2933 50.3805 38.6377C49.6712 38.9625 48.9282 39.2084 48.1648 39.3707C47.4674 39.5201 46.7564 39.5973 46.0431 39.6011H22.2733V33.4636H46.0431C47.2294 33.4636 48.1499 33.117 48.8047 32.4239C49.4595 31.7308 49.7873 30.8015 49.7883 29.636C49.7935 29.1063 49.705 28.5798 49.5269 28.0807C49.3636 27.6253 49.1096 27.2074 48.7801 26.8524C48.4498 26.5005 48.0453 26.2261 47.5958 26.0489C47.1021 25.8526 46.5746 25.7547 46.0431 25.7608H31.8711C30.7764 25.7449 29.6902 25.5658 28.6487 25.2295C27.4793 24.866 26.3897 24.2845 25.4379 23.5158C24.4041 22.6714 23.5635 21.6162 22.9724 20.4212C22.3166 19.1453 21.9888 17.5857 21.9888 15.7425C21.9888 13.8992 22.3166 12.3435 22.9724 11.0753C23.5415 9.93032 24.3382 8.91264 25.314 8.08408C26.2898 7.25553 27.4243 6.6334 28.6487 6.2555C29.6902 5.91915 30.7764 5.74004 31.8711 5.72412L53.8469 5.74428V11.8313L31.8711 11.8673C30.7021 11.8673 29.7897 12.2216 29.134 12.9301C28.4783 13.6386 28.1504 14.576 28.1504 15.7425C28.1504 16.9233 28.4783 17.8565 29.134 18.5419C29.7897 19.2274 30.7021 19.5701 31.8711 19.5701H46.0907C46.8009 19.5919 47.5072 19.6831 48.1995 19.8423C48.9644 20.015 49.7076 20.2725 50.4152 20.6098C51.163 20.9643 51.8668 21.4046 52.5124 21.9217C53.1917 22.4653 53.7869 23.1058 54.2788 23.8225C54.8129 24.6066 55.2244 25.467 55.4993 26.3743C55.8136 27.4327 55.9655 28.5323 55.9499 29.636Z" fill="#14110D"/>
<path d="M89.9501 11.8673H76.3732V39.6011H70.2087V11.8673H56.6057V5.72412H89.9501V11.8673Z" fill="#14110D"/>
<path d="M127.469 25.8242C127.491 27.7735 127.128 29.708 126.403 31.5182C125.734 33.198 124.728 34.7236 123.446 36.0015C122.164 37.2793 120.634 38.2823 118.949 38.9488C117.151 39.662 115.231 40.0191 113.297 40H104.956C103.017 40.0181 101.093 39.6611 99.2909 38.9488C97.6055 38.2802 96.0739 37.2774 94.7889 36.001C93.5084 34.7166 92.4974 33.1907 91.8149 31.5124C91.0811 29.7043 90.7143 27.7689 90.736 25.8185V19.3383C90.7167 17.3918 91.0833 15.4607 91.8149 13.6559C92.4878 11.975 93.498 10.4489 94.7836 9.17114C96.0691 7.89339 97.6029 6.89095 99.2909 6.2253C101.091 5.50459 103.016 5.14303 104.956 5.16111H113.297C115.233 5.14218 117.153 5.5038 118.949 6.2253C120.626 6.89941 122.153 7.89892 123.441 9.16586C124.723 10.447 125.731 11.9746 126.403 13.6559C127.126 15.4627 127.488 17.393 127.469 19.3383V25.8242ZM121.307 19.6753C121.324 18.5506 121.128 17.4328 120.73 16.3805C120.372 15.4312 119.814 14.5692 119.095 13.852C118.376 13.1347 117.512 12.5789 116.56 12.2216C115.52 11.827 114.414 11.6316 113.301 11.6456H104.956C103.835 11.6303 102.721 11.8258 101.673 12.2216C100.72 12.5853 99.8532 13.1402 99.1248 13.8518C98.4031 14.5694 97.842 15.4312 97.4783 16.3805C97.0799 17.4328 96.8839 18.5506 96.9005 19.6753V26.1555C96.884 27.2806 97.08 28.3988 97.4783 29.4517C97.8434 30.3969 98.4045 31.2546 99.1248 31.9689C99.8536 32.68 100.721 33.2348 101.673 33.599C102.721 33.9949 103.835 34.1903 104.956 34.175H113.249C114.37 34.1903 115.484 33.9949 116.532 33.599C117.484 33.2351 118.352 32.6803 119.08 31.9689C119.802 31.2513 120.363 30.3895 120.727 29.4402C121.125 28.3873 121.321 27.2691 121.304 26.1439L121.307 19.6753Z" fill="#14110D"/>
<path d="M136.834 39.6371H130.672V5.76013H136.834V39.6371Z" fill="#14110D"/>
<path d="M162.812 39.6242L154.308 39.5695L140.391 25.7638H135.336V19.6767L140.391 19.5745L154.257 5.72852H163.001L145.535 22.6692L162.812 39.6242Z" fill="#14110D"/>
<path d="M144.095 29.4316L152.41 29.4215L162.834 39.6026H154.289L144.095 29.4316Z" fill="#8BB59D"/>
<path d="M0 15.6546L8.34261 15.646L18.7261 25.8861H10.1813L0 15.6546Z" fill="#8BB59D"/>
<path d="M18.6654 0L13.0989 5.64784L13.1003 20.3247L18.6698 14.4321L18.6654 0Z" fill="#8BB59D"/>
</g>
<defs>
<clipPath id="clip0_78_754">
<rect width="163" height="40" fill="white"/>
</clipPath>
</defs>
</svg>
