<svg width="32" height="32" viewBox="0 0 32 32" fill="none" xmlns="http://www.w3.org/2000/svg">
<rect width="32" height="32" rx="5" fill="#9B9BA6"/>
<path d="M14.5354 6.02373C12.2614 6.27209 10.099 7.3315 8.54327 8.95361C7.13642 10.4205 6.31762 12.1823 6.04593 14.3283C5.97149 14.9414 5.9901 16.4743 6.08315 17.0447C6.42556 19.1364 7.19969 20.7468 8.54327 22.1477C10.2888 23.9716 12.8048 25 15.5217 25C17.1183 25 18.3949 24.6701 18.8527 24.1385C19.3105 23.6107 19.1951 22.7609 18.6294 22.4815C18.4061 22.3728 18.0488 22.3728 17.7622 22.4815C17.3454 22.6445 16.8094 22.788 16.4 22.8501C15.771 22.9471 14.6284 22.9122 13.9734 22.7725C11.4947 22.2525 9.60027 20.7546 8.69214 18.6047C7.81752 16.5325 7.89195 14.2468 8.90057 12.159C9.93895 10.013 11.6249 8.70913 13.9362 8.2745C16.1991 7.84375 18.5252 8.4142 20.3377 9.84227C21.5436 10.7891 22.2917 11.93 22.6676 13.4047C22.9579 14.5611 22.969 16.028 22.6862 17.328C22.4517 18.4262 21.9716 19.5167 21.5399 19.9474C21.3017 20.188 20.9518 20.1337 20.7992 19.8349C20.7359 19.7107 20.7322 19.5012 20.7322 15.6438C20.7322 11.0608 20.7471 11.3169 20.4531 11.0065C20.1591 10.6999 19.638 10.6688 19.2882 10.9405C19.1542 11.0453 19.0649 11.2044 19.0053 11.445L18.9644 11.6041L18.6852 11.3557C17.6431 10.4244 16.4372 9.93929 15.1681 9.93929C14.5577 9.93929 14.1409 10.0053 13.5975 10.1954C12.1795 10.6882 10.9959 11.7748 10.3297 13.1835C9.91662 14.0644 9.77519 14.6775 9.77519 15.6089C9.77519 16.028 9.7938 16.3152 9.84219 16.5558C10.2776 18.8608 12.0529 20.7158 14.2377 21.1582C14.7289 21.2552 15.5366 21.263 16.0465 21.1737C16.9769 21.0107 17.9409 20.5373 18.6703 19.8737L18.9271 19.6447L18.9532 20.0832C18.9718 20.32 19.0165 20.6304 19.0574 20.7701C19.3626 21.8295 20.6057 22.5319 21.6925 22.2642C22.1577 22.1477 22.6155 21.8412 23.0807 21.325C23.5348 20.8206 23.8139 20.4015 24.1302 19.7379C25.4999 16.8778 25.2282 12.8963 23.4827 10.1644C23.17 9.67928 22.8648 9.2951 22.4443 8.86047C21.0225 7.39747 19.1095 6.41568 17.0104 6.08194C16.5563 6.00821 15.0006 5.97329 14.5354 6.02373ZM15.6892 11.9262C17.1518 12.1124 18.2126 13.0438 18.6368 14.5029C18.7299 14.8289 18.7373 14.9026 18.7373 15.6089C18.7411 16.4393 18.7187 16.5635 18.4805 17.165C17.8069 18.8453 16.0018 19.7456 14.2377 19.2761C13.6049 19.1092 13.136 18.8259 12.7043 18.3486C12.0827 17.6695 11.785 16.808 11.785 15.7059C11.785 14.4874 12.1125 13.6026 12.8382 12.8536C13.1248 12.5548 13.2588 12.4462 13.5342 12.3026C14.193 11.9456 14.8927 11.8253 15.6892 11.9262Z" fill="white"/>
</svg>
