<svg width="45" height="45" viewBox="0 0 45 45" fill="none" xmlns="http://www.w3.org/2000/svg">
<path fill-rule="evenodd" clip-rule="evenodd" d="M19.85 3.66867C19.85 3.49133 19.7789 3.32125 19.6523 3.19585C19.5257 3.07045 19.354 3 19.175 3H5.675C5.49598 3 5.32429 3.07045 5.1977 3.19585C5.07112 3.32125 5 3.49133 5 3.66867V31.8368C5 35.8462 8.29265 39.1084 12.34 39.1084H12.4993C16.5524 39.1084 19.85 35.8422 19.85 31.827V3.66867ZM6.35 12.3614H18.5V24.8434H6.35V12.3614ZM18.5 4.33735V11.0241H6.35V4.33735H18.5ZM12.4997 37.7711H12.3404C9.03695 37.7711 6.35 35.1089 6.35 31.8368V26.1807H18.5V31.827C18.5 35.1049 15.8081 37.7711 12.4997 37.7711ZM22.2638 30.8053C22.3268 30.8671 22.4015 30.916 22.4836 30.9492C22.5657 30.9823 22.6537 30.9991 22.7423 30.9985C22.831 30.9979 22.9187 30.98 23.0004 30.9458C23.082 30.9115 23.1561 30.8617 23.2183 30.799L36.8321 17.126C36.9565 17.0008 37.0262 16.8322 37.0262 16.6566C37.0262 16.4809 36.9565 16.3123 36.8321 16.1872L27.6323 6.94652C27.3785 6.69153 26.9249 6.69198 26.6707 6.94652L22.257 11.3798C22.1948 11.4424 22.1456 11.5165 22.1123 11.5978C22.079 11.6792 22.0622 11.7663 22.0628 11.8541C22.0635 11.9419 22.0816 12.0288 22.1161 12.1097C22.1506 12.1906 22.2009 12.2639 22.264 12.3256C22.3272 12.3872 22.4019 12.4359 22.4841 12.4689C22.5662 12.502 22.6542 12.5186 22.7428 12.518C22.8315 12.5173 22.9191 12.4994 23.0008 12.4652C23.0824 12.431 23.1565 12.3812 23.2187 12.3187L27.1517 8.36812L35.4038 16.6557L22.257 29.8593C22.1948 29.9219 22.1455 29.9959 22.1122 30.0773C22.0788 30.1587 22.0619 30.2458 22.0626 30.3337C22.0632 30.4215 22.0813 30.5084 22.1158 30.5893C22.1503 30.6702 22.2006 30.7436 22.2638 30.8053ZM40.325 25.2892H30.875C30.696 25.2892 30.5243 25.3596 30.3977 25.485C30.2711 25.6104 30.2 25.7805 30.2 25.9578C30.2 26.1352 30.2711 26.3053 30.3977 26.4307C30.5243 26.5561 30.696 26.6265 30.875 26.6265H39.65V38.6627H19.625C19.446 38.6627 19.2743 38.7331 19.1477 38.8585C19.0211 38.9839 18.95 39.154 18.95 39.3313C18.95 39.5087 19.0211 39.6787 19.1477 39.8041C19.2743 39.9296 19.446 40 19.625 40H40.325C40.504 40 40.6757 39.9296 40.8023 39.8041C40.9289 39.6787 41 39.5087 41 39.3313V25.9578C41 25.7805 40.9289 25.6104 40.8023 25.485C40.6757 25.3596 40.504 25.2892 40.325 25.2892Z" fill="#14110D"/>
<path fill-rule="evenodd" clip-rule="evenodd" d="M12.5 30C11.1214 30 10 31.1218 10 32.5C10 33.8782 11.1214 35 12.5 35C13.8786 35 15 33.8782 15 32.5C15 31.1218 13.8786 30 12.5 30ZM12.5 33.6364C11.8736 33.6364 11.3636 33.1268 11.3636 32.5C11.3636 31.8732 11.8736 31.3636 12.5 31.3636C13.1264 31.3636 13.6364 31.8732 13.6364 32.5C13.6364 33.1268 13.1264 33.6364 12.5 33.6364Z" fill="#14110D"/>
</svg>
