<svg width="31" height="31" viewBox="0 0 31 31" fill="none" xmlns="http://www.w3.org/2000/svg">
<path d="M29.6235 21.0468L22.2422 17.739C21.9078 17.5957 21.5429 17.5381 21.1806 17.5714C20.8182 17.6047 20.4699 17.7278 20.1672 17.9297C20.1365 17.9495 20.1073 17.9714 20.0797 17.9953L16.2219 21.2765C16.1819 21.2984 16.1373 21.3106 16.0917 21.3122C16.0462 21.3138 16.0009 21.3048 15.9594 21.2859C13.4797 20.089 10.911 17.5359 9.70939 15.0906C9.68938 15.0497 9.67898 15.0048 9.67898 14.9593C9.67898 14.9138 9.68938 14.869 9.70939 14.8281L13.0016 10.9218C13.0252 10.893 13.0472 10.8627 13.0672 10.8312C13.2662 10.5273 13.3865 10.1786 13.417 9.81664C13.4476 9.45464 13.3875 9.09074 13.2422 8.75778L9.95783 1.38903C9.77131 0.954044 9.44875 0.591284 9.03855 0.355194C8.62835 0.119104 8.15265 0.0224211 7.68283 0.0796549C5.64099 0.348087 3.76676 1.35081 2.41037 2.90044C1.05397 4.45007 0.308238 6.44057 0.312518 8.49997C0.312518 20.7343 10.2656 30.6875 22.5 30.6875C24.5593 30.6914 26.5496 29.9456 28.0992 28.5892C29.6488 27.2329 30.6516 25.3589 30.9203 23.3172C30.9774 22.8495 30.8821 22.376 30.6484 21.9669C30.4147 21.5579 30.0553 21.2352 29.6235 21.0468ZM22.5 28.8125C11.3 28.8125 2.18752 19.7 2.18752 8.49997C2.18229 6.89673 2.76096 5.34644 3.8154 4.13873C4.86984 2.93103 6.32792 2.14854 7.91721 1.93747H7.95314C8.01611 1.93864 8.07725 1.95882 8.12855 1.99534C8.17986 2.03187 8.21893 2.08304 8.24064 2.14216L11.5375 9.50309C11.5563 9.54402 11.5661 9.58852 11.5661 9.63356C11.5661 9.6786 11.5563 9.7231 11.5375 9.76403L8.23908 13.6797C8.21459 13.7077 8.19214 13.7375 8.17189 13.7687C7.9655 14.0838 7.84396 14.4469 7.81905 14.8227C7.79413 15.1985 7.8667 15.5745 8.02971 15.914C9.41564 18.7515 12.275 21.589 15.1438 22.975C15.4853 23.1371 15.8631 23.2079 16.2401 23.1805C16.6172 23.1531 16.9808 23.0285 17.2953 22.8187C17.325 22.7984 17.3547 22.7765 17.3828 22.7531L21.2391 19.4718C21.2772 19.4514 21.3192 19.4394 21.3624 19.4367C21.4055 19.434 21.4487 19.4407 21.4891 19.4562L28.8719 22.764C28.9322 22.7897 28.9829 22.8337 29.0168 22.8898C29.0508 22.9459 29.0662 23.0112 29.061 23.0765C28.851 24.6665 28.0692 26.1257 26.8618 27.1813C25.6543 28.2369 24.1038 28.8168 22.5 28.8125Z" fill="#14110D"/>
</svg>
