<svg width="24" height="1205" viewBox="0 0 24 1205" fill="none" xmlns="http://www.w3.org/2000/svg">
<rect x="12.103" y="24.5" width="1.02837" height="145" fill="#14110D"/>
<rect x="0.5" y="1" width="23" height="23" rx="11.5" stroke="#6C8D7A"/>
<path d="M13.3935 8.27273V17H12.3366V9.38068H12.2855L10.1548 10.7955V9.72159L12.3366 8.27273H13.3935Z" fill="#14110D"/>
<rect x="12.103" y="193.5" width="1.02837" height="145" fill="#14110D"/>
<rect x="0.5" y="170" width="23" height="23" rx="11.5" stroke="#6C8D7A"/>
<path d="M9.63778 186V185.233L12.5185 182.08C12.8565 181.71 13.1349 181.389 13.3537 181.116C13.5724 180.841 13.7344 180.582 13.8395 180.341C13.9474 180.097 14.0014 179.841 14.0014 179.574C14.0014 179.267 13.9276 179.001 13.7798 178.777C13.6349 178.553 13.4361 178.379 13.1832 178.257C12.9304 178.135 12.6463 178.074 12.331 178.074C11.9957 178.074 11.7031 178.143 11.4531 178.283C11.206 178.419 11.0142 178.611 10.8778 178.858C10.7443 179.105 10.6776 179.395 10.6776 179.727H9.67188C9.67188 179.216 9.78977 178.767 10.0256 178.381C10.2614 177.994 10.5824 177.693 10.9886 177.477C11.3977 177.261 11.8565 177.153 12.3651 177.153C12.8764 177.153 13.3295 177.261 13.7244 177.477C14.1193 177.693 14.429 177.984 14.6534 178.351C14.8778 178.717 14.9901 179.125 14.9901 179.574C14.9901 179.895 14.9318 180.209 14.8153 180.516C14.7017 180.82 14.5028 181.159 14.2188 181.534C13.9375 181.906 13.5469 182.361 13.0469 182.898L11.0866 184.994V185.062H15.1435V186H9.63778Z" fill="#14110D"/>
<rect x="12.103" y="362.5" width="1.02837" height="145" fill="#14110D"/>
<rect x="0.5" y="339" width="23" height="23" rx="11.5" stroke="#6C8D7A"/>
<path d="M12.2116 355.119C11.6491 355.119 11.1477 355.023 10.7074 354.83C10.2699 354.636 9.92188 354.368 9.66335 354.024C9.40767 353.678 9.26847 353.276 9.24574 352.818H10.3196C10.3423 353.099 10.4389 353.342 10.6094 353.547C10.7798 353.749 11.0028 353.905 11.2784 354.016C11.554 354.126 11.8594 354.182 12.1946 354.182C12.5696 354.182 12.902 354.116 13.1918 353.986C13.4815 353.855 13.7088 353.673 13.8736 353.44C14.0384 353.207 14.1207 352.938 14.1207 352.631C14.1207 352.31 14.0412 352.027 13.8821 351.783C13.723 351.536 13.4901 351.342 13.1832 351.203C12.8764 351.064 12.5014 350.994 12.0582 350.994H11.3594V350.057H12.0582C12.4048 350.057 12.7088 349.994 12.9702 349.869C13.2344 349.744 13.4403 349.568 13.5881 349.341C13.7386 349.114 13.8139 348.847 13.8139 348.54C13.8139 348.244 13.7486 347.987 13.6179 347.768C13.4872 347.55 13.3026 347.379 13.0639 347.257C12.8281 347.135 12.5497 347.074 12.2287 347.074C11.9276 347.074 11.6435 347.129 11.3764 347.24C11.1122 347.348 10.8963 347.506 10.7287 347.713C10.5611 347.918 10.4702 348.165 10.456 348.455H9.43324C9.45028 347.997 9.58807 347.597 9.84659 347.253C10.1051 346.906 10.4432 346.636 10.8608 346.443C11.2813 346.25 11.7429 346.153 12.2457 346.153C12.7855 346.153 13.2486 346.263 13.6349 346.482C14.0213 346.697 14.3182 346.983 14.5256 347.338C14.733 347.693 14.8366 348.077 14.8366 348.489C14.8366 348.98 14.7074 349.399 14.4489 349.746C14.1932 350.092 13.8452 350.332 13.4048 350.466V350.534C13.956 350.625 14.3864 350.859 14.696 351.237C15.0057 351.612 15.1605 352.077 15.1605 352.631C15.1605 353.105 15.0313 353.531 14.7727 353.909C14.517 354.284 14.1676 354.58 13.7244 354.795C13.2813 355.011 12.777 355.119 12.2116 355.119Z" fill="#14110D"/>
<rect x="12.103" y="531.5" width="1.02837" height="145" fill="#14110D"/>
<rect x="0.5" y="508" width="23" height="23" rx="11.5" stroke="#6C8D7A"/>
<path d="M8.99964 522.21V521.341L12.8349 515.273H13.4656V516.619H13.0394L10.1417 521.205V521.273H15.3065V522.21H8.99964ZM13.1076 524V521.946V521.541V515.273H14.1133V524H13.1076Z" fill="#14110D"/>
<rect x="12.103" y="700.5" width="1.02837" height="145" fill="#14110D"/>
<rect x="0.5" y="677" width="23" height="23" rx="11.5" stroke="#6C8D7A"/>
<path d="M12.3299 693.119C11.8299 693.119 11.3796 693.02 10.979 692.821C10.5785 692.622 10.2575 692.349 10.016 692.003C9.7745 691.656 9.6424 691.261 9.61967 690.818H10.6424C10.6822 691.213 10.8612 691.54 11.1793 691.798C11.5004 692.054 11.8839 692.182 12.3299 692.182C12.6879 692.182 13.006 692.098 13.2844 691.93C13.5657 691.763 13.7859 691.533 13.945 691.24C14.1069 690.945 14.1879 690.611 14.1879 690.239C14.1879 689.858 14.104 689.518 13.9364 689.22C13.7717 688.919 13.5444 688.682 13.2546 688.509C12.9648 688.335 12.6339 688.247 12.2617 688.244C11.9947 688.241 11.7205 688.283 11.4393 688.368C11.158 688.45 10.9265 688.557 10.7447 688.688L9.75604 688.568L10.2844 684.273H14.8185V685.21H11.1708L10.864 687.784H10.9151C11.0941 687.642 11.3185 687.524 11.5884 687.43C11.8583 687.337 12.1396 687.29 12.4322 687.29C12.9663 687.29 13.4421 687.418 13.8597 687.673C14.2802 687.926 14.6097 688.273 14.8484 688.713C15.0898 689.153 15.2106 689.656 15.2106 690.222C15.2106 690.778 15.0856 691.276 14.8356 691.713C14.5884 692.148 14.2475 692.491 13.8129 692.744C13.3782 692.994 12.8839 693.119 12.3299 693.119Z" fill="#14110D"/>
<rect x="12.103" y="869.5" width="1.02837" height="145" fill="#14110D"/>
<rect x="0.5" y="846" width="23" height="23" rx="11.5" stroke="#6C8D7A"/>
<path d="M12.3129 862.119C11.9549 862.114 11.5969 862.045 11.239 861.915C10.881 861.784 10.5543 861.564 10.2589 861.254C9.96342 860.942 9.72621 860.52 9.54723 859.989C9.36825 859.455 9.27876 858.784 9.27876 857.977C9.27876 857.205 9.35121 856.52 9.49609 855.923C9.64098 855.324 9.85121 854.82 10.1268 854.411C10.4023 853.999 10.7347 853.686 11.1239 853.473C11.516 853.26 11.9577 853.153 12.4492 853.153C12.9379 853.153 13.3725 853.251 13.7532 853.447C14.1367 853.641 14.4492 853.911 14.6907 854.257C14.9322 854.604 15.0884 855.003 15.1594 855.455H14.1197C14.0231 855.062 13.8356 854.737 13.5572 854.479C13.2788 854.22 12.9094 854.091 12.4492 854.091C11.7731 854.091 11.2404 854.385 10.8512 854.973C10.4648 855.561 10.2702 856.386 10.2674 857.449H10.3356C10.4947 857.207 10.6836 857.001 10.9023 856.831C11.1239 856.658 11.3683 856.524 11.6353 856.43C11.9023 856.337 12.185 856.29 12.4833 856.29C12.9833 856.29 13.4407 856.415 13.8555 856.665C14.2702 856.912 14.6026 857.254 14.8526 857.692C15.1026 858.126 15.2276 858.625 15.2276 859.188C15.2276 859.727 15.1069 860.222 14.8654 860.67C14.6239 861.116 14.2844 861.472 13.8469 861.736C13.4123 861.997 12.9009 862.125 12.3129 862.119ZM12.3129 861.182C12.6708 861.182 12.9918 861.092 13.2759 860.913C13.5629 860.734 13.7887 860.494 13.9535 860.193C14.1211 859.892 14.2049 859.557 14.2049 859.188C14.2049 858.827 14.1239 858.499 13.962 858.203C13.8029 857.905 13.5827 857.668 13.3015 857.491C13.0231 857.315 12.7049 857.227 12.3469 857.227C12.0771 857.227 11.8256 857.281 11.5927 857.389C11.3597 857.494 11.1552 857.639 10.979 857.824C10.8058 858.009 10.6694 858.22 10.57 858.459C10.4705 858.695 10.4208 858.943 10.4208 859.205C10.4208 859.551 10.5018 859.875 10.6637 860.176C10.8285 860.477 11.0529 860.72 11.337 860.905C11.6239 861.089 11.9492 861.182 12.3129 861.182Z" fill="#14110D"/>
<rect x="12.103" y="1037.5" width="1.02837" height="145" fill="#14110D"/>
<rect x="0.5" y="1014" width="23" height="23" rx="11.5" stroke="#6C8D7A"/>
<path d="M9.82067 1030L13.7241 1022.28V1022.21H9.22408V1021.27H14.815V1022.26L10.9286 1030H9.82067Z" fill="#14110D"/>
<rect x="0.5" y="1181" width="23" height="23" rx="11.5" stroke="#6C8D7A"/>
<path d="M12.3043 1197.12C11.7191 1197.12 11.2021 1197.02 10.7532 1196.81C10.3072 1196.6 9.95916 1196.31 9.70916 1195.94C9.45916 1195.57 9.33558 1195.15 9.33842 1194.68C9.33558 1194.31 9.40803 1193.97 9.55575 1193.66C9.70348 1193.34 9.90518 1193.08 10.1609 1192.87C10.4194 1192.66 10.7077 1192.52 11.0259 1192.47V1192.41C10.6083 1192.31 10.2759 1192.07 10.0288 1191.71C9.78161 1191.35 9.65945 1190.93 9.66229 1190.47C9.65945 1190.03 9.77166 1189.63 9.99893 1189.28C10.2262 1188.93 10.5387 1188.66 10.9364 1188.46C11.337 1188.25 11.793 1188.15 12.3043 1188.15C12.81 1188.15 13.2617 1188.25 13.6594 1188.46C14.0572 1188.66 14.3697 1188.93 14.5969 1189.28C14.8271 1189.63 14.9435 1190.03 14.9464 1190.47C14.9435 1190.93 14.8171 1191.35 14.5671 1191.71C14.32 1192.07 13.9918 1192.31 13.5827 1192.41V1192.47C13.8981 1192.52 14.1822 1192.66 14.435 1192.87C14.6879 1193.08 14.8896 1193.34 15.0401 1193.66C15.1907 1193.97 15.2674 1194.31 15.2702 1194.68C15.2674 1195.15 15.1396 1195.57 14.8867 1195.94C14.6367 1196.31 14.2887 1196.6 13.8427 1196.81C13.3995 1197.02 12.8867 1197.12 12.3043 1197.12ZM12.3043 1196.18C12.6992 1196.18 13.0401 1196.12 13.3271 1195.99C13.614 1195.86 13.8356 1195.68 13.9918 1195.45C14.1481 1195.22 14.2276 1194.94 14.2305 1194.63C14.2276 1194.3 14.1424 1194.01 13.9748 1193.76C13.8072 1193.5 13.5785 1193.31 13.2887 1193.16C13.0018 1193.02 12.6737 1192.94 12.3043 1192.94C11.9322 1192.94 11.5998 1193.02 11.3072 1193.16C11.0174 1193.31 10.7887 1193.5 10.6211 1193.76C10.4563 1194.01 10.3754 1194.3 10.3782 1194.63C10.3754 1194.94 10.4506 1195.22 10.604 1195.45C10.7603 1195.68 10.9833 1195.86 11.2731 1195.99C11.5629 1196.12 11.9066 1196.18 12.3043 1196.18ZM12.3043 1192.04C12.6168 1192.04 12.8938 1191.98 13.1353 1191.85C13.3796 1191.73 13.5714 1191.55 13.7106 1191.33C13.8498 1191.1 13.9208 1190.84 13.9237 1190.54C13.9208 1190.24 13.8512 1189.99 13.7148 1189.77C13.5785 1189.55 13.3896 1189.38 13.1481 1189.26C12.9066 1189.13 12.6254 1189.07 12.3043 1189.07C11.9776 1189.07 11.6921 1189.13 11.4478 1189.26C11.2035 1189.38 11.0146 1189.55 10.881 1189.77C10.7475 1189.99 10.6822 1190.24 10.685 1190.54C10.6822 1190.84 10.7489 1191.1 10.8853 1191.33C11.0245 1191.55 11.2163 1191.73 11.4606 1191.85C11.7049 1191.98 11.9862 1192.04 12.3043 1192.04Z" fill="#14110D"/>
</svg>
